<svg xmlns="http://www.w3.org/2000/svg" width="168.784" height="81.477" viewBox="0 0 168.784 81.477">
  <g id="Group_2306" data-name="Group 2306" transform="translate(-372.034 -258.45)">
    <path id="Path_360" data-name="Path 360" d="M398.513,300.2c0,1.125-.563,1.5-1.5,1.5H374.762c-1.125,0-1.625-.375-1.625-1.75V260.013a1.371,1.371,0,0,1,1.5-1.563h5c1.125,0,1.563.438,1.563,1.625v34.939h15.813c1.063,0,1.5.5,1.5,1.438Z" fill="#157d8b"/>
    <path id="Path_361" data-name="Path 361" d="M415.451,286.514c-.5,0-3.312-.125-3.75-.188V300.2c0,.937-.374,1.5-1.562,1.5h-5c-1,0-1.5-.437-1.5-1.688V260.138c0-1.251.376-1.688,1.563-1.688h9.062c6.627,0,11.5,1.249,14.564,4.75a13.589,13.589,0,0,1,3.125,8.876c0,9.687-7.312,14.438-16.5,14.438m-.5-21.814H411.7v15.5c.5,0,3.313.063,3.687.063,5.314,0,8.439-2.5,8.439-7.876,0-5.687-3.5-7.687-8.876-7.687" fill="#157d8b"/>
    <path id="Path_362" data-name="Path 362" d="M448.641,286.514c-.5,0-3.312-.125-3.75-.188V300.2c0,.937-.374,1.5-1.562,1.5h-5c-1,0-1.5-.437-1.5-1.688V260.138c0-1.251.375-1.688,1.563-1.688h9.062c6.627,0,11.5,1.249,14.564,4.75a13.589,13.589,0,0,1,3.125,8.876c0,9.687-7.312,14.438-16.5,14.438m-.5-21.814h-3.25v15.5c.5,0,3.313.063,3.687.063,5.313,0,8.438-2.5,8.438-7.876,0-5.687-3.5-7.687-8.875-7.687" fill="#157d8b"/>
    <path id="Path_363" data-name="Path 363" d="M378.688,320.236v.633a.232.232,0,0,1-.262.262h-5.031q-.309,0-.309-.34v-9.969q0-.324.293-.324h.834q.307,0,.308.324v9.167h3.874c.2,0,.293.083.293.247" fill="#fff"/>
    <path id="Path_364" data-name="Path 364" d="M385.2,317.412a3.872,3.872,0,0,0-.509-2.052,1.759,1.759,0,0,0-1.621-.834,1.817,1.817,0,0,0-1.659.818,3.682,3.682,0,0,0-.517,2.007,4.037,4.037,0,0,0,.494,2.075,1.731,1.731,0,0,0,1.621.841,1.832,1.832,0,0,0,1.658-.825,3.668,3.668,0,0,0,.533-2.03m1.358-.015a4.109,4.109,0,0,1-.949,2.793,3.278,3.278,0,0,1-2.616,1.1,3.125,3.125,0,0,1-2.585-1.08,4.361,4.361,0,0,1-.872-2.825,4.1,4.1,0,0,1,.942-2.785,3.263,3.263,0,0,1,2.608-1.088,3.164,3.164,0,0,1,2.6,1.065,4.32,4.32,0,0,1,.872,2.824" fill="#fff"/>
    <path id="Path_365" data-name="Path 365" d="M393.611,320.638c0,.082-.062.149-.185.2a4.864,4.864,0,0,1-2.084.447,3.381,3.381,0,0,1-2.677-1.041,4.134,4.134,0,0,1-.918-2.832,4.033,4.033,0,0,1,.987-2.817,3.467,3.467,0,0,1,2.7-1.088,4.236,4.236,0,0,1,1.975.448.21.21,0,0,1,.155.2.539.539,0,0,1-.031.124l-.124.494c-.031.123-.087.185-.17.185a.281.281,0,0,1-.138-.046,3.892,3.892,0,0,0-1.6-.386,2.167,2.167,0,0,0-1.744.764,3.08,3.08,0,0,0-.648,2.06,3.6,3.6,0,0,0,.578,2.107,2,2,0,0,0,1.752.825,4.3,4.3,0,0,0,1.728-.37.489.489,0,0,1,.124-.031c.072,0,.123.051.154.154l.139.432a.908.908,0,0,1,.031.17" fill="#fff"/>
    <path id="Path_366" data-name="Path 366" d="M399.584,318.631v-2.963a2.156,2.156,0,0,0-1.868-1.111,1.8,1.8,0,0,0-1.5.772,4.088,4.088,0,0,0-.061,4.113,1.6,1.6,0,0,0,1.373.748,1.931,1.931,0,0,0,1.258-.463,2.545,2.545,0,0,0,.8-1.1m1.975,1.775v.525c0,.134-.077.2-.231.2h-.649a.9.9,0,0,1-.74-.323,1.259,1.259,0,0,1-.263-.818h-.031a2.354,2.354,0,0,1-.949.91,2.711,2.711,0,0,1-1.366.386,2.645,2.645,0,0,1-2.291-1.08,4.442,4.442,0,0,1-.78-2.67,4.31,4.31,0,0,1,.95-2.948,2.991,2.991,0,0,1,2.338-1.08,2.869,2.869,0,0,1,1.165.247,2.235,2.235,0,0,1,.9.694l.016-.509c0-.175.1-.262.293-.262h.7c.185,0,.277.1.277.293v5.4a1.707,1.707,0,0,0,.077.695.278.278,0,0,0,.263.139h.108c.144,0,.216.066.216.2" fill="#fff"/>
    <path id="Path_367" data-name="Path 367" d="M404.352,310.422v10.386q0,.324-.278.324h-.756q-.277,0-.278-.309V310.576c0-.185.077-.288.232-.308.534-.072.818-.108.849-.108.154,0,.231.087.231.262" fill="#fff"/>
    <path id="Path_368" data-name="Path 368" d="M415.046,313.771q0-2.176-2.623-2.176h-.849v4.413l.5.008.486.008a2.749,2.749,0,0,0,1.829-.556,2.1,2.1,0,0,0,.655-1.7m1.451-.031a3.012,3.012,0,0,1-1.1,2.515,4.377,4.377,0,0,1-2.794.865l-.524-.008-.51-.008v3.719a.273.273,0,0,1-.308.309h-.834q-.293,0-.293-.324v-9.985q0-.324.293-.324h2.022a4.189,4.189,0,0,1,3.364,1.173,3.089,3.089,0,0,1,.679,2.068" fill="#fff"/>
    <path id="Path_369" data-name="Path 369" d="M418.287,316.7h3.874v-.216a2.149,2.149,0,0,0-.456-1.4,1.56,1.56,0,0,0-1.288-.564,1.894,1.894,0,0,0-1.474.625,2.642,2.642,0,0,0-.656,1.552m5.17.2v.262a.5.5,0,0,1-.085.356.619.619,0,0,1-.378.077h-4.738a2.874,2.874,0,0,0,.672,1.875,2.221,2.221,0,0,0,1.767.733,5.146,5.146,0,0,0,1.851-.324q.294-.093.34.108l.17.571c.031.1-.026.2-.17.278a5.563,5.563,0,0,1-2.361.447,3.447,3.447,0,0,1-2.693-1.049,4.076,4.076,0,0,1-.949-2.84,4.029,4.029,0,0,1,.98-2.793,3.334,3.334,0,0,1,2.616-1.1,2.786,2.786,0,0,1,2.1.849,3.479,3.479,0,0,1,.88,2.546" fill="#fff"/>
    <path id="Path_370" data-name="Path 370" d="M431.266,316.27v4.537q0,.324-.293.324h-.726q-.293,0-.293-.324v-4.321a2.516,2.516,0,0,0-.324-1.4,1.324,1.324,0,0,0-1.188-.486,2.844,2.844,0,0,0-1.119.255,3.494,3.494,0,0,0-1.011.64v5.309c0,.216-.1.324-.293.324h-.725c-.2,0-.293-.1-.293-.309v-6.836c0-.206.1-.309.293-.309h.679c.2,0,.293.093.293.278l.015.478a3.808,3.808,0,0,1,2.531-.926q2.454,0,2.454,2.763" fill="#fff"/>
    <path id="Path_371" data-name="Path 371" d="M437.871,318.986a2.025,2.025,0,0,1-.787,1.674,3.176,3.176,0,0,1-2.037.625,5.047,5.047,0,0,1-2.114-.494.207.207,0,0,1-.139-.293l.2-.555c.052-.144.139-.191.263-.139a4.915,4.915,0,0,0,1.836.463,1.761,1.761,0,0,0,1.088-.309,1,1,0,0,0,.409-.849q0-.755-1.157-1.2l-1.034-.4a2.074,2.074,0,0,1-1.59-1.944,1.752,1.752,0,0,1,.756-1.512,3.079,3.079,0,0,1,1.837-.541,4.685,4.685,0,0,1,2.006.433c.092.041.139.092.139.154a.522.522,0,0,1-.031.123l-.17.54c-.031.1-.087.155-.17.155a.494.494,0,0,1-.123-.031,3.831,3.831,0,0,0-1.62-.37,1.446,1.446,0,0,0-.926.27.839.839,0,0,0-.34.686.83.83,0,0,0,.224.6,2.253,2.253,0,0,0,.733.448l1.2.509a2.11,2.11,0,0,1,1.543,1.96" fill="#fff"/>
    <path id="Path_372" data-name="Path 372" d="M440.8,313.986v6.821q0,.324-.293.324h-.71q-.308,0-.308-.324v-6.821a.272.272,0,0,1,.308-.308h.71c.2,0,.293.1.293.308m-.1-2.662a.674.674,0,0,1,.238.532.666.666,0,0,1-.247.533.835.835,0,0,1-.555.208.8.8,0,0,1-.556-.208.731.731,0,0,1,0-1.065.8.8,0,0,1,.556-.209.833.833,0,0,1,.564.209" fill="#fff"/>
    <path id="Path_373" data-name="Path 373" d="M448.257,317.412a3.872,3.872,0,0,0-.509-2.052,1.759,1.759,0,0,0-1.621-.834,1.817,1.817,0,0,0-1.659.818,3.682,3.682,0,0,0-.517,2.007,4.037,4.037,0,0,0,.494,2.075,1.731,1.731,0,0,0,1.621.841,1.833,1.833,0,0,0,1.658-.825,3.668,3.668,0,0,0,.533-2.03m1.358-.015a4.109,4.109,0,0,1-.949,2.793,3.278,3.278,0,0,1-2.616,1.1,3.125,3.125,0,0,1-2.585-1.08,4.361,4.361,0,0,1-.872-2.825,4.1,4.1,0,0,1,.942-2.785,3.263,3.263,0,0,1,2.608-1.088,3.164,3.164,0,0,1,2.6,1.065,4.32,4.32,0,0,1,.872,2.824" fill="#fff"/>
    <path id="Path_374" data-name="Path 374" d="M457.516,316.27v4.537q0,.324-.293.324H456.5q-.293,0-.293-.324v-4.321a2.516,2.516,0,0,0-.324-1.4,1.324,1.324,0,0,0-1.188-.486,2.844,2.844,0,0,0-1.119.255,3.494,3.494,0,0,0-1.011.64v5.309c0,.216-.1.324-.293.324h-.725c-.2,0-.293-.1-.293-.309v-6.836c0-.206.1-.309.293-.309h.679c.2,0,.293.093.293.278l.015.478a3.808,3.808,0,0,1,2.531-.926q2.454,0,2.454,2.763" fill="#fff"/>
    <path id="Path_375" data-name="Path 375" d="M464.121,318.986a2.025,2.025,0,0,1-.787,1.674,3.176,3.176,0,0,1-2.037.625,5.051,5.051,0,0,1-2.114-.494.207.207,0,0,1-.139-.293l.2-.555c.052-.144.139-.191.263-.139a4.915,4.915,0,0,0,1.836.463,1.761,1.761,0,0,0,1.088-.309,1,1,0,0,0,.409-.849q0-.755-1.157-1.2l-1.034-.4a2.074,2.074,0,0,1-1.59-1.944,1.752,1.752,0,0,1,.756-1.512,3.079,3.079,0,0,1,1.837-.541,4.685,4.685,0,0,1,2.006.433c.092.041.139.092.139.154a.522.522,0,0,1-.031.123l-.17.54c-.031.1-.087.155-.17.155a.494.494,0,0,1-.123-.031,3.831,3.831,0,0,0-1.62-.37,1.446,1.446,0,0,0-.926.27.839.839,0,0,0-.34.686.83.83,0,0,0,.224.6,2.253,2.253,0,0,0,.733.448l1.2.509a2.11,2.11,0,0,1,1.543,1.96" fill="#fff"/>
    <path id="Path_376" data-name="Path 376" d="M474.228,313.771q0-2.176-2.623-2.176h-.849v4.413l.5.008.486.008a2.749,2.749,0,0,0,1.829-.556,2.1,2.1,0,0,0,.655-1.7m1.451-.031a3.012,3.012,0,0,1-1.095,2.515,4.377,4.377,0,0,1-2.794.865l-.524-.008-.51-.008v3.719a.273.273,0,0,1-.308.309h-.834q-.293,0-.293-.324v-9.985q0-.324.293-.324h2.022A4.189,4.189,0,0,1,475,311.672a3.089,3.089,0,0,1,.679,2.068" fill="#fff"/>
    <path id="Path_377" data-name="Path 377" d="M481.559,318.631v-2.963a2.156,2.156,0,0,0-1.868-1.111,1.8,1.8,0,0,0-1.5.772,4.088,4.088,0,0,0-.061,4.113,1.6,1.6,0,0,0,1.373.748,1.931,1.931,0,0,0,1.258-.463,2.545,2.545,0,0,0,.795-1.1m1.975,1.775v.525c0,.134-.077.2-.231.2h-.649a.9.9,0,0,1-.74-.323,1.259,1.259,0,0,1-.263-.818h-.031a2.354,2.354,0,0,1-.949.91,2.711,2.711,0,0,1-1.366.386,2.645,2.645,0,0,1-2.291-1.08,4.442,4.442,0,0,1-.78-2.67,4.31,4.31,0,0,1,.95-2.948,2.991,2.991,0,0,1,2.338-1.08,2.869,2.869,0,0,1,1.165.247,2.235,2.235,0,0,1,.9.694l.016-.509c0-.175.1-.262.293-.262h.695c.185,0,.277.1.277.293v5.4a1.681,1.681,0,0,0,.078.695.275.275,0,0,0,.262.139h.108c.144,0,.216.066.216.2" fill="#fff"/>
    <path id="Path_378" data-name="Path 378" d="M485.973,313.678q.309,0,.309.278l.015.524a2.126,2.126,0,0,1,1.775-.972,2.264,2.264,0,0,1,.447.046c.1.021.144.108.124.263l-.108.694a.153.153,0,0,1-.17.154,1.476,1.476,0,0,1-.193-.023,1.985,1.985,0,0,0-.3-.023,1.645,1.645,0,0,0-.826.247,2.2,2.2,0,0,0-.717.679v5.263q0,.324-.293.324h-.726c-.195,0-.293-.108-.293-.324v-6.821c0-.206.1-.309.293-.309Z" fill="#fff"/>
    <path id="Path_379" data-name="Path 379" d="M491.759,319.943a1.084,1.084,0,0,0,.849.309,3.352,3.352,0,0,0,.972-.186c.133-.061.226-.015.278.139l.123.494q.047.2-.2.309a3.91,3.91,0,0,1-1.435.278,2.19,2.19,0,0,1-1.682-.571,1.582,1.582,0,0,1-.393-.787,7.3,7.3,0,0,1-.085-1.281V314.6h-.849a.177.177,0,0,1-.231-.232v-.478c0-.144.066-.216.2-.216h.88v-1.76a.333.333,0,0,1,.054-.216.37.37,0,0,1,.208-.092l.756-.108h.062c.154,0,.232.092.232.277v1.9h1.821c.144,0,.216.067.216.2v.525c0,.134-.078.2-.232.2h-1.8v4.166a1.845,1.845,0,0,0,.262,1.173" fill="#fff"/>
    <path id="Path_380" data-name="Path 380" d="M501.513,316.27v4.537q0,.324-.293.324h-.726c-.195,0-.293-.108-.293-.324v-4.321a2.517,2.517,0,0,0-.324-1.4,1.324,1.324,0,0,0-1.188-.486,2.844,2.844,0,0,0-1.119.255,3.494,3.494,0,0,0-1.011.64v5.309q0,.324-.293.324h-.725c-.2,0-.293-.1-.293-.309v-6.836c0-.206.1-.309.293-.309h.679c.2,0,.293.093.293.278l.015.478a3.808,3.808,0,0,1,2.531-.926q2.454,0,2.454,2.763" fill="#fff"/>
    <path id="Path_381" data-name="Path 381" d="M504.552,316.7h3.874v-.216a2.149,2.149,0,0,0-.456-1.4,1.56,1.56,0,0,0-1.288-.564,1.894,1.894,0,0,0-1.474.625,2.642,2.642,0,0,0-.656,1.552m5.17.2v.262a.509.509,0,0,1-.085.356.618.618,0,0,1-.378.077h-4.738a2.874,2.874,0,0,0,.672,1.875,2.221,2.221,0,0,0,1.767.733,5.146,5.146,0,0,0,1.851-.324q.294-.093.34.108l.17.571c.031.1-.026.2-.17.278a5.563,5.563,0,0,1-2.361.447,3.447,3.447,0,0,1-2.693-1.049,4.076,4.076,0,0,1-.949-2.84,4.029,4.029,0,0,1,.98-2.793,3.334,3.334,0,0,1,2.616-1.1,2.786,2.786,0,0,1,2.1.849,3.479,3.479,0,0,1,.88,2.546" fill="#fff"/>
    <path id="Path_382" data-name="Path 382" d="M512.222,313.678q.309,0,.309.278l.015.524a2.126,2.126,0,0,1,1.775-.972,2.264,2.264,0,0,1,.447.046c.1.021.144.108.124.263l-.108.694a.153.153,0,0,1-.17.154,1.475,1.475,0,0,1-.193-.023,1.986,1.986,0,0,0-.3-.023,1.645,1.645,0,0,0-.826.247,2.2,2.2,0,0,0-.717.679v5.263c0,.216-.1.324-.293.324h-.726q-.293,0-.293-.324v-6.821q0-.309.293-.309Z" fill="#fff"/>
    <path id="Path_383" data-name="Path 383" d="M520.664,318.986a2.025,2.025,0,0,1-.787,1.674,3.176,3.176,0,0,1-2.037.625,5.051,5.051,0,0,1-2.114-.494.207.207,0,0,1-.139-.293l.2-.555c.052-.144.139-.191.263-.139a4.915,4.915,0,0,0,1.836.463,1.761,1.761,0,0,0,1.088-.309,1,1,0,0,0,.409-.849q0-.755-1.157-1.2l-1.034-.4a2.074,2.074,0,0,1-1.59-1.944,1.752,1.752,0,0,1,.756-1.512,3.08,3.08,0,0,1,1.837-.541,4.685,4.685,0,0,1,2.006.433c.093.041.139.092.139.154a.525.525,0,0,1-.031.123l-.17.54c-.031.1-.087.155-.17.155a.494.494,0,0,1-.123-.031,3.831,3.831,0,0,0-1.62-.37,1.448,1.448,0,0,0-.926.27.839.839,0,0,0-.34.686.83.83,0,0,0,.224.6,2.253,2.253,0,0,0,.733.448l1.2.509a2.11,2.11,0,0,1,1.543,1.96" fill="#fff"/>
    <path id="Path_384" data-name="Path 384" d="M528.41,316.27v4.568c0,.195-.082.293-.247.293h-.8c-.175,0-.263-.1-.263-.293v-4.352a2.516,2.516,0,0,0-.324-1.4,1.306,1.306,0,0,0-1.173-.486,2.9,2.9,0,0,0-1.126.255,3.471,3.471,0,0,0-1.019.64v5.34c0,.195-.087.293-.262.293h-.8c-.165,0-.247-.093-.247-.278V310.591a.3.3,0,0,1,.293-.324c.1-.01.2-.024.3-.039s.172-.026.224-.031a.784.784,0,0,0,.131-.023.33.33,0,0,1,.085-.015h.046c.154,0,.231.087.231.262v4a3.694,3.694,0,0,1,2.531-.911q2.422,0,2.423,2.763" fill="#fff"/>
    <path id="Path_385" data-name="Path 385" d="M531.929,313.986v6.821c0,.216-.1.324-.293.324h-.71q-.309,0-.309-.324v-6.821a.272.272,0,0,1,.309-.308h.71c.2,0,.293.1.293.308m-.1-2.662a.7.7,0,0,1-.008,1.065.839.839,0,0,1-.555.208.8.8,0,0,1-.556-.208.727.727,0,0,1,0-1.065.8.8,0,0,1,.556-.209.832.832,0,0,1,.563.209" fill="#fff"/>
    <path id="Path_386" data-name="Path 386" d="M538.92,319.4a3.8,3.8,0,0,0,.525-2.037,3.873,3.873,0,0,0-.479-2,1.685,1.685,0,0,0-1.574-.81,2.437,2.437,0,0,0-1.1.285,2.28,2.28,0,0,0-.856.7v3.626a1.973,1.973,0,0,0,.779.772,2.143,2.143,0,0,0,1.088.308,1.771,1.771,0,0,0,1.621-.848m1.9-2.068a4.471,4.471,0,0,1-.88,2.8,2.929,2.929,0,0,1-2.469,1.149,3.035,3.035,0,0,1-1.142-.223,2.174,2.174,0,0,1-.9-.641v3.735q0,.293-.339.293h-.68c-.2,0-.293-.108-.293-.324v-10.17c0-.185.1-.277.293-.277H535q.355,0,.355.277v.54a2.594,2.594,0,0,1,1-.717,3.273,3.273,0,0,1,1.3-.27,2.739,2.739,0,0,1,2.362,1.1,4.515,4.515,0,0,1,.8,2.724" fill="#fff"/>
    <path id="Path_387" data-name="Path 387" d="M378.162,335.561l-1.234-3.534c-.185-.54-.293-.879-.355-1.1h-.015c-.077.247-.185.555-.386,1.126l-1.265,3.5Zm1.389,3.934-1.018-2.87h-4l-1.064,2.886c-.077.2-.139.262-.355.262h-.91c-.217,0-.186-.17-.139-.309l3.872-10.106a.3.3,0,0,1,.278-.216h.818a.271.271,0,0,1,.278.185l3.811,10.122c.062.169.062.324-.2.324h-.956c-.263,0-.34-.046-.417-.278" fill="#157d8b"/>
    <path id="Path_388" data-name="Path 388" d="M387.283,334.265a2.195,2.195,0,0,0-1.821-1.08c-1.389,0-2.191,1.141-2.191,2.839,0,1.635.725,2.854,2.068,2.854a2.6,2.6,0,0,0,1.944-1.018Zm1.312,5.184c0,.2-.094.324-.232.324H387.7c-.23,0-.324-.093-.324-.293l-.014-.556a3.091,3.091,0,0,1-2.27,1c-2.221,0-3.178-1.821-3.178-3.842,0-2.268,1.328-3.95,3.364-3.95a2.763,2.763,0,0,1,2.006.864v-3.764c0-.2.046-.294.247-.325.786-.107.8-.107.833-.107.154,0,.232.076.232.262Z" fill="#157d8b"/>
    <path id="Path_389" data-name="Path 389" d="M401.371,339.449c0,.216-.093.324-.293.324h-.71a.282.282,0,0,1-.309-.324v-4.336c0-1.111-.277-1.882-1.527-1.882a3.424,3.424,0,0,0-1.929.725,9.047,9.047,0,0,1,.124,1.7v3.8c0,.216-.093.324-.294.324h-.709a.282.282,0,0,1-.309-.324v-4.336c0-1.064-.231-1.882-1.45-1.882a3.163,3.163,0,0,0-2.006.91v5.308c0,.216-.093.324-.293.324h-.725c-.2,0-.294-.108-.294-.324v-6.82a.272.272,0,0,1,.294-.308h.663c.185,0,.309.076.309.277l.015.478a3.57,3.57,0,0,1,2.345-.925,2.259,2.259,0,0,1,2.006.956,3.956,3.956,0,0,1,2.577-.956,2.266,2.266,0,0,1,2.052.956,3.785,3.785,0,0,1,.463,2.053Z" fill="#157d8b"/>
    <path id="Path_390" data-name="Path 390" d="M404.891,339.449c0,.216-.092.323-.293.323h-.709a.281.281,0,0,1-.309-.323v-6.82a.271.271,0,0,1,.309-.309h.709c.2,0,.293.093.293.309Zm-.663-8.209a.742.742,0,1,1,0-1.481.764.764,0,0,1,.8.74.774.774,0,0,1-.8.741" fill="#157d8b"/>
    <path id="Path_391" data-name="Path 391" d="M413.363,339.449c0,.216-.077.324-.293.324h-.725c-.2,0-.294-.108-.294-.324v-4.32c0-1.1-.277-1.883-1.512-1.883a3.51,3.51,0,0,0-2.129.895v5.308c0,.216-.093.324-.293.324h-.725a.273.273,0,0,1-.293-.309v-6.835c0-.216.077-.308.293-.308h.679c.185,0,.293.076.293.277l.015.478a3.972,3.972,0,0,1,2.531-.925c1.774,0,2.453,1.08,2.453,2.762Z" fill="#157d8b"/>
    <path id="Path_392" data-name="Path 392" d="M416.867,339.449c0,.216-.093.323-.294.323h-.709a.281.281,0,0,1-.309-.323v-6.82a.271.271,0,0,1,.309-.309h.709c.2,0,.294.093.294.309Zm-.664-8.209a.742.742,0,1,1,0-1.481.764.764,0,0,1,.8.74.774.774,0,0,1-.8.741" fill="#157d8b"/>
    <path id="Path_393" data-name="Path 393" d="M420.8,339.927a5.457,5.457,0,0,1-2.114-.494.217.217,0,0,1-.139-.293l.2-.555a.2.2,0,0,1,.262-.139,5.358,5.358,0,0,0,1.836.463c.9,0,1.5-.432,1.5-1.157,0-.6-.448-.926-1.157-1.2l-1.034-.4a2.123,2.123,0,0,1-1.589-1.944c0-1.358,1.234-2.053,2.592-2.053a4.594,4.594,0,0,1,2.006.432c.092.047.139.093.139.155a.489.489,0,0,1-.031.123l-.17.54c-.031.108-.093.155-.17.155a.489.489,0,0,1-.123-.031,4.619,4.619,0,0,0-1.62-.37c-.818,0-1.266.432-1.266.956s.309.772.957,1.049l1.2.509a2.16,2.16,0,0,1,1.543,1.96c0,1.42-1.189,2.3-2.824,2.3" fill="#157d8b"/>
    <path id="Path_394" data-name="Path 394" d="M427.854,338.893a3.407,3.407,0,0,0,.972-.185.2.2,0,0,1,.278.139l.123.493c.031.155-.015.232-.2.309a4.234,4.234,0,0,1-1.435.278,2.343,2.343,0,0,1-1.682-.571,2.839,2.839,0,0,1-.478-2.068v-4.042h-.849c-.2,0-.232-.031-.232-.232v-.478c0-.154.062-.216.2-.216h.88v-1.759c0-.216.061-.278.262-.309l.756-.108h.062c.154,0,.231.108.231.278v1.9h1.821c.139,0,.216.031.216.2v.525c0,.154-.077.2-.232.2h-1.8v4.166a1.751,1.751,0,0,0,.262,1.172,1.1,1.1,0,0,0,.849.309" fill="#157d8b"/>
    <path id="Path_395" data-name="Path 395" d="M431.759,332.6l.015.525a2.182,2.182,0,0,1,1.775-.973,2.575,2.575,0,0,1,.447.047c.139.031.139.154.124.262l-.108.694a.158.158,0,0,1-.17.155c-.123,0-.216-.047-.494-.047a2.02,2.02,0,0,0-1.543.926v5.262c0,.2-.092.324-.293.324h-.725c-.2,0-.293-.108-.293-.324v-6.82c0-.232.108-.309.293-.309h.663c.2,0,.309.077.309.278" fill="#157d8b"/>
    <path id="Path_396" data-name="Path 396" d="M439.783,334.31a2.148,2.148,0,0,0-1.867-1.111c-1.188,0-2.083,1.05-2.083,2.886,0,1.7.787,2.746,1.9,2.746a2.316,2.316,0,0,0,2.052-1.558Zm1.975,5.262c0,.154-.077.2-.231.2h-.648a1.011,1.011,0,0,1-1-1.141h-.031a2.827,2.827,0,0,1-2.315,1.3c-2.129,0-3.07-1.8-3.07-3.75,0-2.576,1.527-4.027,3.286-4.027a2.622,2.622,0,0,1,2.068.942l.015-.51c0-.185.124-.262.293-.262h.695c.185,0,.278.093.278.293v5.4a1.688,1.688,0,0,0,.077.7.259.259,0,0,0,.262.139h.108c.139,0,.216.03.216.2Z" fill="#157d8b"/>
    <path id="Path_397" data-name="Path 397" d="M445.987,338.893a3.407,3.407,0,0,0,.972-.185.2.2,0,0,1,.278.139l.123.493c.031.155-.015.232-.2.309a4.234,4.234,0,0,1-1.435.278,2.343,2.343,0,0,1-1.682-.571,2.839,2.839,0,0,1-.478-2.068v-4.042h-.849c-.2,0-.232-.031-.232-.232v-.478c0-.154.062-.216.2-.216h.88v-1.759c0-.216.061-.278.262-.309l.756-.108h.062c.154,0,.231.108.231.278v1.9H446.7c.139,0,.216.031.216.2v.525c0,.154-.077.2-.232.2h-1.8v4.166a1.751,1.751,0,0,0,.262,1.172,1.1,1.1,0,0,0,.849.309" fill="#157d8b"/>
    <path id="Path_398" data-name="Path 398" d="M450.076,339.449c0,.216-.092.323-.293.323h-.709a.281.281,0,0,1-.309-.323v-6.82a.271.271,0,0,1,.309-.309h.709c.2,0,.293.093.293.309Zm-.663-8.209a.742.742,0,1,1,0-1.481.764.764,0,0,1,.8.74.774.774,0,0,1-.8.741" fill="#157d8b"/>
    <path id="Path_399" data-name="Path 399" d="M455.4,333.169c-1.666,0-2.175,1.466-2.175,2.824,0,1.419.478,2.916,2.113,2.916s2.191-1.42,2.191-2.855-.524-2.885-2.129-2.885m-.077,6.758c-2.392,0-3.456-1.7-3.456-3.9,0-2.175,1.25-3.873,3.549-3.873,2.391,0,3.471,1.652,3.471,3.889,0,2.175-1.265,3.888-3.564,3.888" fill="#157d8b"/>
    <path id="Path_400" data-name="Path 400" d="M466.789,339.449c0,.216-.077.324-.293.324h-.725c-.2,0-.294-.108-.294-.324v-4.32c0-1.1-.277-1.883-1.512-1.883a3.511,3.511,0,0,0-2.129.895v5.308c0,.216-.093.324-.293.324h-.725a.273.273,0,0,1-.293-.309v-6.835c0-.216.077-.308.293-.308h.679c.185,0,.293.076.293.277l.015.478a3.972,3.972,0,0,1,2.531-.925c1.774,0,2.453,1.08,2.453,2.762Z" fill="#157d8b"/>
  </g>
</svg>
